<svg xmlns="http://www.w3.org/2000/svg" xmlns:xlink="http://www.w3.org/1999/xlink" version="1.1" x="0px" y="0px" viewBox="0 0 65 81.25" enable-background="new 0 0 65 65" xml:space="preserve"><g><path d="M55.7,15.6c-0.5,0-1.3,0.1-1.8,0.2c-1.2-4-5-6.8-9.1-6.8c-2.5,0-4.9,1-6.6,2.7V7.2c0-4.2-9.9-6.5-19.2-6.5   C9.6,0.7-0.2,3-0.2,7.2V44c0,4.1,9.4,6.4,18.4,6.5v7.2c-1.3,0.3-2.3,1.5-2.3,3c0,0,0,0.1,0,0.1l-9.1,2.1l0.3,1.5l9.2-2.1   c0.5,0.9,1.5,1.5,2.6,1.5c1.1,0,2.1-0.6,2.6-1.5l9.2,2.1l0.3-1.5L22,60.8c0,0,0-0.1,0-0.1c0-1.4-1-2.6-2.3-3v-7.2   c9.1-0.1,18.4-2.4,18.4-6.5v-9.3c0.5-0.2,1-0.5,1.5-0.8c0.8,1,2.7,2.7,5.6,2.7c3.5,0,5.3-1.9,6-3c1.4,0.7,2.9,1.1,4.5,1.1   c5.3,0,9.6-4.3,9.6-9.6C65.3,19.9,61,15.6,55.7,15.6z M18.9,2.2c10.4,0,17.7,2.6,17.7,5c0,2.4-7.3,5-17.7,5   c-10.4,0-17.7-2.6-17.7-5C1.3,4.8,8.5,2.2,18.9,2.2z M1.3,9.8c3.1,2.5,10.6,3.9,17.7,3.9c7.1,0,14.6-1.3,17.7-3.9v3.7   c-0.3,0.6-0.6,1.1-0.9,1.8c-0.6-0.2-1.2-0.3-1.8-0.3c-4.3,0-5.9,3.4-6.3,5.5c-0.5,0.2-1,0.4-1.5,0.7c-2.3,0.3-4.7,0.5-7.3,0.5   c-10.4,0-17.7-2.6-17.7-5V9.8z M1.3,19.4c3.1,2.5,10.6,3.9,17.7,3.9c1.8,0,3.6-0.1,5.3-0.2c-0.8,1.1-1.3,2.5-1.3,4   c0,1.4,0.4,2.6,1.1,3.7c-1.6,0.1-3.3,0.2-5.1,0.2C8.5,31,1.3,28.3,1.3,26V19.4z M20.5,60.7c0,0.9-0.7,1.6-1.6,1.6   c-0.9,0-1.6-0.7-1.6-1.6s0.7-1.6,1.6-1.6C19.8,59.1,20.5,59.8,20.5,60.7z M18.9,49.1c-10.4,0-17.7-2.6-17.7-5v-6.2   c3.1,2.5,10.6,3.9,17.7,3.9c7.1,0,14.6-1.3,17.7-3.9V44C36.6,46.4,29.3,49.1,18.9,49.1z M36.6,35.2c0,2.4-7.3,5-17.7,5   c-10.4,0-17.7-2.6-17.7-5v-6.5c3.1,2.5,10.6,3.9,17.7,3.9c2.2,0,4.3-0.1,6.3-0.3c1.2,1,2.7,1.6,4.4,1.6c0.8,0,1.5-0.1,2.3-0.4   c1.1,1.1,2.6,1.8,4.2,1.8C36.2,35.2,36.4,35.1,36.6,35.2L36.6,35.2z M55.7,33.2c-1.6,0-3.1-0.5-4.4-1.3l-0.8-0.5l-0.3,0.9   c0,0.1-1.2,2.9-5,2.9c-3.1,0-4.8-2.6-4.8-2.7l-0.5-0.8l-0.7,0.7c-0.8,0.9-1.9,1.3-3.1,1.3c-1.9,0-3.6-1.3-4.2-3.1L30.5,31   c0.1,0.4,0.3,0.8,0.5,1.2c-0.4,0.1-0.9,0.2-1.4,0.2c-2.9,0-5.2-2.3-5.2-5.2c0-2.5,1.8-4.6,4.2-5.1l0.6-0.1l0-0.6   c0-0.2,0.3-4.7,4.8-4.7c0.5,0,0.9,0.1,1.4,0.2c-0.1,0.6-0.2,1.2-0.2,1.8h1.5c0-0.7,0.1-1.4,0.3-2.1c0.9-3.5,4.1-6,7.8-6   c3.7,0,7,2.6,7.9,6.3l0.2,0.7l0.7-0.2c0.4-0.1,1.6-0.3,2.2-0.3c4.4,0,8.1,3.6,8.1,8.1C63.8,29.6,60.1,33.2,55.7,33.2z"/><path d="M38.1,22.4c-1.5,0-2.7,1.2-2.7,2.7c0,1.5,1.2,2.7,2.7,2.7c1.5,0,2.7-1.2,2.7-2.7C40.8,23.6,39.6,22.4,38.1,22.4z    M38.1,26.3c-0.7,0-1.2-0.5-1.2-1.2c0-0.7,0.5-1.2,1.2-1.2s1.2,0.5,1.2,1.2C39.3,25.7,38.7,26.3,38.1,26.3z"/><path d="M45.4,22.4c-1.5,0-2.7,1.2-2.7,2.7c0,1.5,1.2,2.7,2.7,2.7c1.5,0,2.7-1.2,2.7-2.7C48.1,23.6,46.9,22.4,45.4,22.4z    M45.4,26.3c-0.7,0-1.2-0.5-1.2-1.2c0-0.7,0.5-1.2,1.2-1.2c0.7,0,1.2,0.5,1.2,1.2C46.6,25.7,46.1,26.3,45.4,26.3z"/><path d="M52.8,22.4c-1.5,0-2.7,1.2-2.7,2.7c0,1.5,1.2,2.7,2.7,2.7c1.5,0,2.7-1.2,2.7-2.7C55.5,23.6,54.3,22.4,52.8,22.4z    M52.8,26.3c-0.7,0-1.2-0.5-1.2-1.2c0-0.7,0.5-1.2,1.2-1.2s1.2,0.5,1.2,1.2C54,25.7,53.4,26.3,52.8,26.3z"/><path d="M26.2,18.2L26,16.8c-0.5,0.1-1,0.1-1.5,0.2l0.2,1.5C25.2,18.4,25.7,18.3,26.2,18.2z"/><path d="M13.6,17c-0.5,0-1-0.1-1.5-0.2l-0.2,1.5c0.5,0.1,1,0.1,1.5,0.2L13.6,17z"/><path d="M22,18.6l-0.1-1.5c-0.5,0-1,0-1.5,0.1l0,1.5C21,18.7,21.5,18.7,22,18.6z"/><path d="M17.7,17.2c-0.5,0-1,0-1.5,0l-0.1,1.5c0.5,0,1,0,1.5,0.1L17.7,17.2z"/><path d="M13.5,26.2c-0.5,0-1-0.1-1.5-0.2l-0.2,1.5c0.5,0.1,1,0.1,1.5,0.2L13.5,26.2z"/><path d="M17.6,26.4c-0.5,0-1,0-1.5-0.1l-0.1,1.5c0.5,0,1,0,1.5,0.1L17.6,26.4z"/><path d="M21.9,27.8l-0.1-1.5c-0.5,0-1,0-1.5,0.1l0,1.5C20.9,27.9,21.4,27.9,21.9,27.8z"/><path d="M20.4,35.6l0,1.5c0.5,0,1,0,1.5-0.1l-0.1-1.5C21.4,35.6,20.9,35.6,20.4,35.6z"/><path d="M24.5,35.3l0.2,1.5c0.5-0.1,1-0.1,1.5-0.2L26,35.2C25.5,35.2,25,35.3,24.5,35.3z"/><path d="M11.9,36.7c0.5,0.1,1,0.1,1.5,0.2l0.1-1.5c-0.5,0-1-0.1-1.5-0.2L11.9,36.7z"/><path d="M16.2,37c0.5,0,1,0,1.5,0.1l0-1.5c-0.5,0-1,0-1.5,0L16.2,37z"/><path d="M20.4,44.8l0,1.5c0.5,0,1,0,1.5-0.1l-0.1-1.5C21.4,44.8,20.9,44.8,20.4,44.8z"/><path d="M16.2,46.2c0.5,0,1,0,1.5,0.1l0-1.5c-0.5,0-1,0-1.5,0L16.2,46.2z"/><path d="M24.5,44.5l0.2,1.5c0.5-0.1,1-0.1,1.5-0.2L26,44.4C25.5,44.4,25,44.5,24.5,44.5z"/><path d="M11.9,45.9c0.5,0.1,1,0.1,1.5,0.2l0.1-1.5c-0.5,0-1-0.1-1.5-0.2L11.9,45.9z"/></g><text x="0" y="80" fill="#000000" font-size="5px" font-weight="bold" font-family="'Helvetica Neue', Helvetica, Arial-Unicode, Arial, Sans-serif">Created by Creative Stall</text><text x="0" y="85" fill="#000000" font-size="5px" font-weight="bold" font-family="'Helvetica Neue', Helvetica, Arial-Unicode, Arial, Sans-serif">from the Noun Project</text></svg>