<svg xmlns="http://www.w3.org/2000/svg" data-name="Layer 1" viewBox="0 0 100 125" x="0px" y="0px"><title>34</title><g data-name="Group"><path data-name="Compound Path" d="M25.3,24.3C15,24.3,4.1,27.2,4.1,32.6V67.4c0,5.4,10.9,8.3,21.2,8.3s21.2-2.9,21.2-8.3V32.6C46.5,27.2,35.6,24.3,25.3,24.3Zm0,49.4C14,73.7,6.1,70.4,6.1,67.4v-14c3.6,3,11.6,4.6,19.2,4.6s15.6-1.6,19.2-4.6v14C44.5,70.4,36.6,73.7,25.3,73.7Zm0-17.7C14,56,6.1,52.7,6.1,49.7V36.3c3.6,3,11.6,4.6,19.2,4.6s15.6-1.6,19.2-4.6V49.7C44.5,52.7,36.6,56,25.3,56Zm0-17.1C14,38.9,6.1,35.6,6.1,32.6s7.9-6.3,19.2-6.3,19.2,3.3,19.2,6.3S36.6,38.9,25.3,38.9Z"/><path data-name="Path" d="M26.4,47.8H24.2a1,1,0,0,0,0,2h2.2a1,1,0,0,0,0-2Z"/><path data-name="Path" d="M26.4,64.5H24.2a1,1,0,0,0,0,2h2.2a1,1,0,1,0,0-2Z"/><path data-name="Path" d="M55.5,27.2V72.8a9,9,0,0,0,9,9h3v-2h-3a7,7,0,0,1-7-7V51h10V49h-10V27.2a7,7,0,0,1,7-7h3v-2h-3A9,9,0,0,0,55.5,27.2Z"/><path data-name="Compound Path" d="M87.5,41.7h-6a8.3,8.3,0,0,0,0,16.7h6a8.3,8.3,0,0,0,0-16.7Zm0,14.7h-6a6.3,6.3,0,0,1,0-12.7h6a6.3,6.3,0,0,1,0,12.7Z"/><path data-name="Compound Path" d="M87.5,71.7h-6a8.3,8.3,0,0,0,0,16.7h6a8.3,8.3,0,0,0,0-16.7Zm0,14.7h-6a6.3,6.3,0,0,1,0-12.7h6a6.3,6.3,0,0,1,0,12.7Z"/><path data-name="Compound Path" d="M87.5,11.7h-6a8.3,8.3,0,0,0,0,16.7h6a8.3,8.3,0,0,0,0-16.7Zm0,14.7h-6a6.3,6.3,0,0,1,0-12.7h6a6.3,6.3,0,0,1,0,12.7Z"/></g><text x="0" y="115" fill="#000000" font-size="5px" font-weight="bold" font-family="'Helvetica Neue', Helvetica, Arial-Unicode, Arial, Sans-serif">Created by Daily icons</text><text x="0" y="120" fill="#000000" font-size="5px" font-weight="bold" font-family="'Helvetica Neue', Helvetica, Arial-Unicode, Arial, Sans-serif">from the Noun Project</text></svg>