<svg xmlns="http://www.w3.org/2000/svg" data-name="Слой 1" viewBox="0 0 128 160" x="0px" y="0px">
    <title>magic, wand, wizard, optimization, seo</title>
    <path class="seo" d="M120,126.52H102.29a1,1,0,0,1-.27,0l-2.25-.64h-.21a1,1,0,0,1-1-1,1,1,0,0,1,1-1,3.55,3.55,0,0,1,.76.07l2.17.62H120a1.42,1.42,0,0,0,1.42-1.42,1.7,1.7,0,0,0-.73-1.46,1,1,0,0,1,.68-1.87,1.61,1.61,0,0,0,.37.05,1.58,1.58,0,0,0,.66-3,1,1,0,0,1,.55-1.9l.2,0a1.51,1.51,0,0,0,1.5-1.5,1.79,1.79,0,0,0-.85-1.59,1,1,0,0,1-.58-1.15,1,1,0,0,1,1-.76h0a1.74,1.74,0,0,0,.08-3.48H112.17a1,1,0,0,1-1-1.28,31.91,31.91,0,0,0,1.31-6.4,10,10,0,0,0-2.79-6,1.26,1.26,0,0,0-.87-.26,3.29,3.29,0,0,0-1.51.42l0,.27c.18,1.61.56,5-.58,7.13a74.85,74.85,0,0,1-5.48,8.42,3.92,3.92,0,0,1-1.62,1,1,1,0,0,1-.52-1.93h0a2.05,2.05,0,0,0,.72-.48A78.61,78.61,0,0,0,105,99.41c.85-1.62.51-4.67.36-6,0-.37-.07-.65-.07-.79,0-.88.87-1.42,1.6-1.72,1.23-.51,3.08-.71,4.22.44a11.9,11.9,0,0,1,3.37,7.25,25.64,25.64,0,0,1-1,5.81h11a1,1,0,0,1,.28,0,3.74,3.74,0,0,1,1.4,7,4.08,4.08,0,0,1,.53,2,3.51,3.51,0,0,1-1.79,3.05,3.58,3.58,0,0,1-1.75,5.08,4,4,0,0,1,.31,1.55A3.42,3.42,0,0,1,120,126.52Z"/>
    <path class="seo" d="M99.53,128H86.62a1,1,0,0,1-1-.9l-1.86-18.48a1,1,0,0,1,1-1.1H99.53a1,1,0,0,1,1,1V127A1,1,0,0,1,99.53,128Zm-12-2h11V109.52H85.86Z"/>
    <path class="seo" d="M94.08,125.16a3.65,3.65,0,1,1,3.65-3.65A3.65,3.65,0,0,1,94.08,125.16Zm0-5.3a1.65,1.65,0,1,0,1.65,1.65A1.65,1.65,0,0,0,94.08,119.86Z"/>
    <path class="seo" d="M3.67,37.24a1,1,0,0,1-1-1V1.58a1,1,0,1,1,2,0V36.24A1,1,0,0,1,3.67,37.24Z"/>
    <path class="seo" d="M1,4.67A1,1,0,0,1,.29,3L3,.29a1,1,0,0,1,1.41,0L7.05,3A1,1,0,0,1,5.64,4.38l-2-2-2,2A1,1,0,0,1,1,4.67Z"/>
    <path class="seo" d="M26.38,37.24H3.73a1,1,0,0,1,0-2H26.38a1,1,0,0,1,0,2Z"/>
    <path class="seo" d="M3.67,30.17a1,1,0,0,1-.78-1.62L13.71,14.91a1,1,0,0,1,1.57,1.24L4.46,29.79A1,1,0,0,1,3.67,30.17Z"/>
    <path class="seo" d="M26,19.46a1,1,0,0,1-.4-.08l-8.69-3.8a1,1,0,1,1,.8-1.83l8.69,3.8a1,1,0,0,1-.4,1.92Z"/>
    <path class="seo" d="M28.78,18.83a1,1,0,0,1-.86-1.51l8.25-14a1,1,0,0,1,1.72,1l-8.25,14A1,1,0,0,1,28.78,18.83Z"/>
    <path class="seo" d="M38.67,12a1,1,0,0,1-1-.77L36.25,5.08,30.07,6.52a1,1,0,1,1-.45-1.95l7.16-1.66a1,1,0,0,1,1.2.75l1.66,7.16a1,1,0,0,1-.75,1.2Z"/>
    <path class="seo" d="M15.67,16.76a2.63,2.63,0,1,1,2.63-2.63A2.63,2.63,0,0,1,15.67,16.76Zm0-3.25a.63.63,0,1,0,.63.63A.63.63,0,0,0,15.67,13.51Z"/>
    <path class="seo" d="M27.61,21.75a2.63,2.63,0,1,1,2.63-2.62A2.63,2.63,0,0,1,27.61,21.75Zm0-3.25a.63.63,0,1,0,.63.63A.63.63,0,0,0,27.61,18.5Z"/>
    <path class="seo" d="M69.63,94.44H37a6.59,6.59,0,0,1-6.58-6.58V37A6.59,6.59,0,0,1,37,30.4H87.86A6.59,6.59,0,0,1,94.44,37V74.19a1,1,0,0,1-2,0V37a4.59,4.59,0,0,0-4.58-4.58H37A4.59,4.59,0,0,0,32.4,37V87.86A4.59,4.59,0,0,0,37,92.44H69.63a1,1,0,0,1,0,2Z"/>
    <path class="seo" d="M74.84,43.59a3.39,3.39,0,1,1,3.39-3.39A3.4,3.4,0,0,1,74.84,43.59Zm0-4.78a1.39,1.39,0,1,0,1.39,1.39A1.39,1.39,0,0,0,74.84,38.8Z"/>
    <path class="seo" d="M84.76,43.59a3.39,3.39,0,1,1,3.39-3.39A3.4,3.4,0,0,1,84.76,43.59Zm0-4.78a1.39,1.39,0,1,0,1.39,1.39A1.39,1.39,0,0,0,84.76,38.8Z"/>
    <path class="seo" d="M64.92,43.59a3.39,3.39,0,1,1,3.39-3.39A3.4,3.4,0,0,1,64.92,43.59Zm0-4.78a1.39,1.39,0,1,0,1.39,1.39A1.39,1.39,0,0,0,64.92,38.8Z"/>
    <path class="seo" d="M84.71,101.6a1,1,0,0,1-.92-.61l-2.14-5.06L74,99.16a1,1,0,0,1-1.39-.93L73,61.56a1,1,0,0,1,1.69-.72l26.6,25.25a1,1,0,0,1-.3,1.65L93.36,91,95.51,96A1,1,0,0,1,95,97.34l-9.87,4.18A1,1,0,0,1,84.71,101.6Zm-2.54-8a1,1,0,0,1,.92.61l2.14,5.06,8-3.4-2.14-5.06a1,1,0,0,1,.53-1.31l7.14-3L75,63.87l-.34,32.85,7.14-3A1,1,0,0,1,82.18,93.62Z"/>
    <path class="seo" d="M59.53,81.71a1,1,0,0,1-.57-.18L51,76l-7.94,5.53a1,1,0,0,1-1.53-1.11l2.8-9.26-7.71-5.85a1,1,0,0,1,.58-1.8l9.67-.2,3.18-9.14a1,1,0,0,1,1.89,0l3.18,9.14,9.67.2a1,1,0,0,1,.58,1.8l-7.71,5.85,2.8,9.26a1,1,0,0,1-1,1.29ZM51,73.79a1,1,0,0,1,.57.18l6.15,4.28-2.17-7.17A1,1,0,0,1,55.92,70l6-4.53-7.49-.15a1,1,0,0,1-.92-.67L51,57.56l-2.46,7.08a1,1,0,0,1-.92.67l-7.49.15,6,4.53a1,1,0,0,1,.35,1.09l-2.17,7.17L50.45,74A1,1,0,0,1,51,73.79Z"/>
    <path class="seo" d="M93.44,49.89h-62a1,1,0,1,1,0-2h62a1,1,0,0,1,0,2Z"/>
    <path class="seo" d="M57.92,127.77h-.1a64.71,64.71,0,0,1-10-1.8A64.07,64.07,0,0,1,2.1,47.83a65,65,0,0,1,2.43-7.41,1,1,0,1,1,1.86.74A62.86,62.86,0,0,0,4,48.34a62.06,62.06,0,0,0,54,77.43,1,1,0,0,1-.1,2Z"/>
    <path class="seo" d="M67,128a1,1,0,0,1,0-2c1.65-.08,3.31-.22,4.94-.43a1,1,0,0,1,.25,2c-1.68.22-3.4.37-5.1.45Z"/>
    <path class="seo" d="M36.17,112.5a1,1,0,0,1-.5-.14c-1.51-.88-3-1.85-4.42-2.88a1,1,0,1,1,1.17-1.62c1.37,1,2.8,1.92,4.26,2.77a1,1,0,0,1-.51,1.86Z"/>
    <path class="seo" d="M25,103.81a1,1,0,0,1-.71-.3,56.09,56.09,0,0,1-11-63.15,1,1,0,0,1,1.81.84,54.09,54.09,0,0,0,10.62,60.9,1,1,0,0,1-.71,1.7Z"/>
    <path class="seo" d="M119.32,95.15a1,1,0,0,1-.88-1.48A62.05,62.05,0,0,0,79.7,4c-1.89-.49-3.8-.9-5.7-1.21a1,1,0,1,1,.32-2c2,.32,3.94.74,5.88,1.25a64.05,64.05,0,0,1,40,92.53A1,1,0,0,1,119.32,95.15Z"/>
    <path class="seo" d="M61.06,2.07a1,1,0,0,1,0-2C62.6,0,64.19,0,65.77,0a1,1,0,0,1,1,1,1,1,0,0,1-1,1c-1.52,0-3.07,0-4.61,0Z"/>
    <path class="seo" d="M100.67,24a1,1,0,0,1-.67-.26c-1.27-1.14-2.61-2.23-4-3.25a1,1,0,1,1,1.19-1.61c1.43,1.06,2.83,2.19,4.14,3.37a1,1,0,0,1-.67,1.74Z"/>
    <path class="seo" d="M113.43,89.13a1,1,0,0,1-.9-1.44,54.1,54.1,0,0,0-7.13-58.33,1,1,0,1,1,1.54-1.28,56.1,56.1,0,0,1,7.39,60.49A1,1,0,0,1,113.43,89.13Z"/>
    <path class="seo" d="M55.42,118.7h0a1,1,0,0,1-1-.86,43.32,43.32,0,0,0-.83-4.59,24.74,24.74,0,0,0-2.94-.78,1,1,0,0,1,0-2,24.47,24.47,0,0,0,2.94-.79,43.22,43.22,0,0,0,.83-4.59,1,1,0,0,1,2,0,43.45,43.45,0,0,0,.83,4.59,24.34,24.34,0,0,0,2.94.79,1,1,0,0,1,0,2,24.77,24.77,0,0,0-2.94.78,43.55,43.55,0,0,0-.83,4.59A1,1,0,0,1,55.42,118.7Zm-.88-7.21a1.61,1.61,0,0,1,.53.34,1.39,1.39,0,0,1,.34.6,1.39,1.39,0,0,1,.34-.6,1.62,1.62,0,0,1,.54-.34,1.63,1.63,0,0,1-.54-.34,1.39,1.39,0,0,1-.34-.6,1.38,1.38,0,0,1-.35.6A1.59,1.59,0,0,1,54.54,111.48Zm2.76-1.59h0Z"/>
    <path class="seo" d="M70.21,21.78a1,1,0,0,1-1-.83,27.55,27.55,0,0,0-.62-2.81,21.21,21.21,0,0,0-2.28-.6,1,1,0,0,1,0-2A21.21,21.21,0,0,0,68.6,15a27.55,27.55,0,0,0,.62-2.81,1,1,0,0,1,2,0A27.42,27.42,0,0,0,71.81,15a22,22,0,0,0,2.28.6,1,1,0,0,1,0,2,21.21,21.21,0,0,0-2.28.6A27.49,27.49,0,0,0,71.19,21,1,1,0,0,1,70.21,21.78Zm-.31-5.22a1.11,1.11,0,0,1,.17.14,1.07,1.07,0,0,1,.14.17,1.08,1.08,0,0,1,.14-.17,1.14,1.14,0,0,1,.17-.14,1.15,1.15,0,0,1-.17-.14,1.12,1.12,0,0,1-.14-.17,1.08,1.08,0,0,1-.14.17A1.17,1.17,0,0,1,69.9,16.56Zm2-1.41h0Z"/>
</svg>