<svg xmlns="http://www.w3.org/2000/svg" xmlns:xlink="http://www.w3.org/1999/xlink" version="1.1" x="0px" y="0px" viewBox="0 0 500 625" enable-background="new 0 0 500 500" xml:space="preserve"><path d="M419.704,384.257l-68.749-68.763c18.707-25.869,29.778-57.605,29.778-91.898c0-11.274-1.218-22.265-3.486-32.873  l-16.506,12.402c0.992,6.684,1.52,13.516,1.52,20.47c0,76.488-62.228,138.716-138.715,138.716  c-76.486,0-138.713-62.228-138.713-138.716c0-76.488,62.228-138.715,138.713-138.715c46.52,0,87.73,23.043,112.91,58.288  l14.995-10.774c-28.539-39.904-75.216-65.987-127.905-65.987c-86.674,0-157.186,70.515-157.186,157.188  c0,86.676,70.512,157.188,157.186,157.188c29.695,0,57.492-8.285,81.205-22.649l70.539,70.544  c5.936,5.931,13.823,9.196,22.211,9.196c8.394,0,16.281-3.266,22.212-9.196c5.935-5.935,9.2-13.822,9.195-22.211  C428.908,398.079,425.639,390.191,419.704,384.257z M406.652,415.613c-4.885,4.89-13.408,4.88-18.302,0l-68.171-68.176  c7.513-5.876,19.843-18.021,19.279-17.313l67.185,67.193c2.443,2.448,3.792,5.695,3.792,9.155  C410.44,409.927,409.097,413.169,406.652,415.613z"/><polygon points="144.269,277.083 132.772,262.624 260.013,161.44 296.061,202.57 432.634,93.375 444.17,107.802 293.806,228.024   257.73,186.858 144.269,277.083 "/></svg>