<svg xmlns="http://www.w3.org/2000/svg" xmlns:xlink="http://www.w3.org/1999/xlink" version="1.1" x="0px" y="0px" viewBox="0 0 512 640" enable-background="new 0 0 512 512" xml:space="preserve"><g><path d="M384.203,24.07c2.202,0,3.998-1.788,3.998-3.999s-1.796-3.999-3.998-3.999h-0.086c-2.203,0-3.952,1.788-3.952,3.999   S381.992,24.07,384.203,24.07z"/><path d="M368.208,24.07c2.202,0,3.999-1.788,3.999-3.999s-1.797-3.999-3.999-3.999h-0.086c-2.202,0-3.952,1.788-3.952,3.999   S365.998,24.07,368.208,24.07z"/><path d="M352.213,24.07c2.202,0,3.998-1.788,3.998-3.999s-1.796-3.999-3.998-3.999h-0.086c-2.203,0-3.952,1.788-3.952,3.999   S350.002,24.07,352.213,24.07z"/><path d="M104.046,120.041c2.211,0,3.999-1.788,3.999-3.999V40.065h295.91v75.977c0,2.21,1.788,3.999,3.998,3.999   c2.211,0,3.999-1.788,3.999-3.999V4.077c0-2.21-1.788-3.999-3.999-3.999H104.046c-2.21,0-3.998,1.788-3.998,3.999v111.966   C100.048,118.253,101.836,120.041,104.046,120.041z M403.955,8.075v23.993H256H108.045V8.075H256H403.955z"/><path d="M407.953,391.959c-2.21,0-3.998,1.788-3.998,3.998v107.967h-295.91V395.957c0-2.21-1.788-3.998-3.999-3.998   c-2.21,0-3.998,1.788-3.998,3.998v111.966c0,2.21,1.788,3.999,3.998,3.999h303.907c2.211,0,3.999-1.789,3.999-3.999V395.957   C411.952,393.747,410.164,391.959,407.953,391.959z"/><path d="M455.939,351.971h-27.992V140.035c0-6.615-5.381-11.996-11.996-11.996H96.049c-6.615,0-11.996,5.381-11.996,11.996v211.936   H56.061c-2.21,0-3.998,1.788-3.998,3.999v15.995c0,6.615,5.381,11.996,11.996,11.996h383.883c6.615,0,11.996-5.381,11.996-11.996   V355.97C459.938,353.759,458.149,351.971,455.939,351.971z M92.05,140.035c0-2.202,1.793-3.999,3.999-3.999H256.16   c-2.21,0-3.96,1.789-3.96,3.999c0,2.21,1.832,3.999,4.038,3.999c2.21,0,4.002-1.789,4.002-3.999c0-2.21-1.792-3.999-4.002-3.999   h159.713c2.202,0,3.999,1.796,3.999,3.999v211.936H92.05V140.035z M451.94,371.965c0,2.202-1.797,3.998-3.999,3.998H64.059   c-2.206,0-3.999-1.796-3.999-3.998v-11.996h27.991h131.96c-2.21,0-3.998,1.788-3.998,3.998c0,2.211,1.788,3.999,3.998,3.999h71.979   c2.21,0,3.999-1.788,3.999-3.999c0-2.21-1.789-3.998-3.999-3.998h131.96h27.991V371.965z"/><path d="M100.048,148.033v191.941c0,2.21,1.788,3.998,3.998,3.998h303.907c2.211,0,3.999-1.788,3.999-3.998V148.033   c0-2.211-1.788-3.999-3.999-3.999H256.238H104.046C101.836,144.034,100.048,145.822,100.048,148.033z M295.809,219.847   l65.323,116.129H223.225L295.809,219.847z M213.798,335.976h-38.402l44.33-68.198L236.9,299.01L213.798,335.976z M108.045,152.032   h295.91v183.944h-33.654l-70.83-125.923c-0.688-1.233-1.976-2.007-3.39-2.038c-1.468,0.023-2.733,0.68-3.483,1.882l-50.84,81.343   l-18.244-33.17c-0.676-1.226-1.952-2.015-3.354-2.069c-1.476,0.008-2.733,0.641-3.503,1.819l-50.801,78.156h-57.811V152.032z"/><path d="M371.965,275.994c0,5.209,3.35,9.606,7.997,11.262v8.732c0,2.21,1.788,3.998,3.999,3.998c2.21,0,3.999-1.788,3.999-3.998   v-8.732c4.646-1.655,7.997-6.053,7.997-11.262c0-5.21-3.351-9.606-7.997-11.263v-9.466c4.646-1.655,7.997-6.053,7.997-11.262   c0-5.21-3.351-9.606-7.997-11.263v-9.466c4.646-1.655,7.997-6.053,7.997-11.262c0-5.21-3.351-9.606-7.997-11.263v-8.731   c0-2.21-1.789-3.999-3.999-3.999c-2.211,0-3.999,1.789-3.999,3.999v8.731c-4.647,1.656-7.997,6.053-7.997,11.263   c0,5.209,3.35,9.606,7.997,11.262v9.466c-4.647,1.656-7.997,6.053-7.997,11.263c0,5.209,3.35,9.606,7.997,11.262v9.466   C375.314,266.388,371.965,270.784,371.965,275.994z M383.961,279.992c-2.203,0-3.999-1.796-3.999-3.998   c0-2.203,1.796-3.999,3.999-3.999c2.202,0,3.999,1.796,3.999,3.999C387.96,278.196,386.163,279.992,383.961,279.992z    M383.961,208.015c2.202,0,3.999,1.796,3.999,3.999c0,2.202-1.797,3.999-3.999,3.999c-2.203,0-3.999-1.796-3.999-3.999   C379.962,209.811,381.758,208.015,383.961,208.015z M383.961,240.005c2.202,0,3.999,1.796,3.999,3.999   c0,2.202-1.797,3.999-3.999,3.999c-2.203,0-3.999-1.796-3.999-3.999C379.962,241.801,381.758,240.005,383.961,240.005z"/><path d="M128.039,176.024h87.974c2.21,0,3.998-1.789,3.998-3.999c0-2.21-1.788-3.999-3.998-3.999h-87.974   c-2.21,0-3.999,1.789-3.999,3.999C124.04,174.236,125.829,176.024,128.039,176.024z"/><path d="M128.039,192.02h87.974c2.21,0,3.998-1.789,3.998-3.999c0-2.21-1.788-3.999-3.998-3.999h-87.974   c-2.21,0-3.999,1.789-3.999,3.999C124.04,190.231,125.829,192.02,128.039,192.02z"/><path d="M128.039,208.015h39.988c2.21,0,3.998-1.789,3.998-3.999c0-2.21-1.788-3.999-3.998-3.999h-39.988   c-2.21,0-3.999,1.789-3.999,3.999C124.04,206.226,125.829,208.015,128.039,208.015z"/><path d="M140.035,224.01c-8.821,0-15.995,7.178-15.995,15.995S131.214,256,140.035,256s15.995-7.178,15.995-15.995   S148.856,224.01,140.035,224.01z M140.035,248.002c-4.408,0-7.997-3.585-7.997-7.998c0-4.413,3.589-7.998,7.997-7.998   c4.409,0,7.998,3.584,7.998,7.998C148.033,244.417,144.444,248.002,140.035,248.002z"/><path d="M196.019,435.945c0-19.846-16.144-35.989-35.989-35.989S124.04,416.1,124.04,435.945s16.144,35.988,35.989,35.988   S196.019,455.791,196.019,435.945z M160.029,407.953c15.433,0,27.991,12.559,27.991,27.992c0,6.193-2.085,11.863-5.502,16.502   c-4.011-0.882-8.271-1.991-10.493-2.78v-5.396c2.363-3.265,3.999-7.232,3.999-11.349c0-9.676-6.881-16.971-16.003-16.971   c-9.114,0-15.987,7.295-15.987,16.971c0,4.116,1.636,8.084,3.999,11.356v5.389c-2.223,0.789-6.482,1.898-10.493,2.78   c-3.417-4.639-5.502-10.309-5.502-16.502C132.038,420.512,144.597,407.953,160.029,407.953z M152.032,432.922   c0-5.287,3.283-8.973,7.989-8.973c4.714,0,8.006,3.686,8.006,8.973c0,6.062-6.046,11.021-8.006,11.021   C158.065,443.942,152.032,438.983,152.032,432.922z M144.327,459.094c11.012-2.733,11.703-4.521,11.703-7.153v-0.969   c1.352,0.57,2.706,0.969,3.991,0.969c1.289,0,2.647-0.406,4.007-0.977v0.977c0,2.632,0.691,4.42,11.703,7.153   c-4.483,3.055-9.888,4.843-15.702,4.843S148.811,462.148,144.327,459.094z"/><path d="M291.989,435.945c0-19.846-16.144-35.989-35.989-35.989s-35.989,16.144-35.989,35.989s16.144,35.988,35.989,35.988   S291.989,455.791,291.989,435.945z M256,407.953c15.433,0,27.991,12.559,27.991,27.992c0,6.193-2.085,11.863-5.498,16.502   c-4.015-0.882-8.278-1.991-10.497-2.78v-5.389c2.359-3.272,3.999-7.24,3.999-11.356c0-9.676-6.873-16.971-15.995-16.971   c-9.118,0-15.995,7.295-15.995,16.971c0,4.116,1.637,8.084,3.999,11.356v5.389c-2.223,0.789-6.482,1.906-10.489,2.788   c-3.421-4.646-5.506-10.316-5.506-16.51C228.009,420.512,240.567,407.953,256,407.953z M248.003,432.922   c0-5.287,3.287-8.973,7.997-8.973c4.709,0,7.998,3.686,7.998,8.973c0,6.062-6.038,11.021-7.998,11.021   S248.003,438.983,248.003,432.922z M240.302,459.102c11.008-2.741,11.699-4.529,11.699-7.161v-0.977   c1.355,0.57,2.71,0.977,3.999,0.977s2.644-0.406,3.999-0.977v0.977c0,2.632,0.694,4.42,11.707,7.153   c-4.483,3.055-9.888,4.843-15.706,4.843C250.186,463.937,244.781,462.148,240.302,459.102z"/><path d="M387.96,435.945c0-19.846-16.144-35.989-35.989-35.989c-19.838,0-35.981,16.144-35.981,35.989s16.144,35.988,35.981,35.988   C371.816,471.934,387.96,455.791,387.96,435.945z M351.971,407.953c15.433,0,27.991,12.559,27.991,27.992   c0,6.193-2.085,11.863-5.498,16.502c-4.015-0.882-8.278-1.991-10.497-2.78v-5.389c2.359-3.272,3.999-7.24,3.999-11.356   c0-9.676-6.873-16.971-15.995-16.971s-15.995,7.295-15.995,16.971c0,4.116,1.64,8.084,3.999,11.356v5.389   c-2.219,0.789-6.482,1.898-10.489,2.78c-3.413-4.639-5.498-10.309-5.498-16.502C323.987,420.512,336.538,407.953,351.971,407.953z    M343.973,432.922c0-5.287,3.288-8.973,7.998-8.973c4.709,0,7.998,3.686,7.998,8.973c0,6.062-6.038,11.021-7.998,11.021   C350.01,443.942,343.973,438.983,343.973,432.922z M336.272,459.102c11.012-2.741,11.699-4.529,11.699-7.161v-0.977   c1.359,0.57,2.71,0.977,3.999,0.977s2.64-0.406,3.999-0.977v0.977c0,2.632,0.694,4.42,11.707,7.153   c-4.483,3.055-9.888,4.843-15.706,4.843S340.756,462.148,336.272,459.102z"/><path d="M244.004,20.072c0,6.615,5.381,11.997,11.996,11.997s11.996-5.381,11.996-11.997c0-6.615-5.381-11.997-11.996-11.997   S244.004,13.457,244.004,20.072z M256,16.073c2.206,0,3.999,1.796,3.999,3.999S258.206,24.07,256,24.07s-3.999-1.796-3.999-3.999   S253.794,16.073,256,16.073z"/><path d="M128.039,24.07h23.993c2.21,0,3.998-1.788,3.998-3.999s-1.788-3.999-3.998-3.999h-23.993c-2.21,0-3.999,1.788-3.999,3.999   S125.829,24.07,128.039,24.07z"/><path d="M168.027,24.07h23.992c2.21,0,3.999-1.788,3.999-3.999s-1.789-3.999-3.999-3.999h-23.992c-2.211,0-3.999,1.788-3.999,3.999   S165.816,24.07,168.027,24.07z"/><path d="M371.965,68.057c0-2.21-1.789-3.999-3.999-3.999H144.034c-2.21,0-3.999,1.788-3.999,3.999s1.789,3.999,3.999,3.999h223.932   C370.176,72.056,371.965,70.268,371.965,68.057z"/><path d="M339.975,84.052c0-2.21-1.789-3.999-3.999-3.999H176.024c-2.21,0-3.999,1.788-3.999,3.999s1.789,3.999,3.999,3.999h159.951   C338.186,88.051,339.975,86.263,339.975,84.052z"/><path d="M216.013,96.049c-2.211,0-3.999,1.788-3.999,3.999s1.788,3.999,3.999,3.999h79.976c2.21,0,3.998-1.788,3.998-3.999   s-1.788-3.999-3.998-3.999H216.013z"/><path d="M144.034,479.932c-2.21,0-3.999,1.788-3.999,3.999c0,2.21,1.789,3.999,3.999,3.999h31.99c2.21,0,3.999-1.789,3.999-3.999   c0-2.211-1.789-3.999-3.999-3.999H144.034z"/><path d="M240.005,479.932c-2.21,0-3.999,1.788-3.999,3.999c0,2.21,1.789,3.999,3.999,3.999h31.99c2.21,0,3.999-1.789,3.999-3.999   c0-2.211-1.789-3.999-3.999-3.999H240.005z"/><path d="M335.976,479.932c-2.21,0-3.999,1.788-3.999,3.999c0,2.21,1.789,3.999,3.999,3.999h31.99c2.21,0,3.999-1.789,3.999-3.999   c0-2.211-1.789-3.999-3.999-3.999H335.976z"/></g><text x="0" y="527" fill="#000000" font-size="5px" font-weight="bold" font-family="'Helvetica Neue', Helvetica, Arial-Unicode, Arial, Sans-serif">Created by lastspark</text><text x="0" y="532" fill="#000000" font-size="5px" font-weight="bold" font-family="'Helvetica Neue', Helvetica, Arial-Unicode, Arial, Sans-serif">from the Noun Project</text></svg>