<svg xmlns="http://www.w3.org/2000/svg" xmlns:xlink="http://www.w3.org/1999/xlink" version="1.1" x="0px" y="0px" viewBox="0 0 128 160" enable-background="new 0 0 128 128" xml:space="preserve"><g><path d="M98,15.8c0.1,0.1,0.3,0.2,0.5,0.2c0.2,0,0.4-0.1,0.5-0.2c0.3-0.3,0.3-0.8,0-1l-1.6-1.6c-0.3-0.3-0.8-0.3-1,0s-0.3,0.8,0,1   L98,15.8z"/><path d="M103.2,21.1c0.1,0.1,0.3,0.2,0.5,0.2s0.4-0.1,0.5-0.2c0.3-0.3,0.3-0.8,0-1l-1.6-1.6c-0.3-0.3-0.8-0.3-1,0   c-0.3,0.3-0.3,0.8,0,1L103.2,21.1z"/><path d="M96.9,21.3c0.2,0,0.4-0.1,0.5-0.2l1.6-1.6c0.3-0.3,0.3-0.8,0-1s-0.8-0.3-1,0L96.4,20c-0.3,0.3-0.3,0.8,0,1   C96.6,21.2,96.7,21.3,96.9,21.3z"/><path d="M102.2,16c0.2,0,0.4-0.1,0.5-0.2l1.6-1.6c0.3-0.3,0.3-0.8,0-1s-0.8-0.3-1,0l-1.6,1.6c-0.3,0.3-0.3,0.8,0,1   C101.8,16,102,16,102.2,16z"/><path d="M3.9,110.9c-0.3-0.3-0.8-0.3-1,0s-0.3,0.8,0,1l1.6,1.6c0.1,0.1,0.3,0.2,0.5,0.2s0.4-0.1,0.5-0.2c0.3-0.3,0.3-0.8,0-1   L3.9,110.9z"/><path d="M9.1,116.2c-0.3-0.3-0.8-0.3-1,0c-0.3,0.3-0.3,0.8,0,1l1.6,1.6c0.1,0.1,0.3,0.2,0.5,0.2s0.4-0.1,0.5-0.2   c0.3-0.3,0.3-0.8,0-1L9.1,116.2z"/><path d="M4.4,116.2l-1.6,1.6c-0.3,0.3-0.3,0.8,0,1C3,119,3.2,119,3.3,119s0.4-0.1,0.5-0.2l1.6-1.6c0.3-0.3,0.3-0.8,0-1   C5.2,115.9,4.7,115.9,4.4,116.2z"/><path d="M9.7,110.9l-1.6,1.6c-0.3,0.3-0.3,0.8,0,1c0.1,0.1,0.3,0.2,0.5,0.2s0.4-0.1,0.5-0.2l1.6-1.6c0.3-0.3,0.3-0.8,0-1   C10.4,110.7,10,110.7,9.7,110.9z"/><path d="M119.4,67.9c0.1,0.1,0.3,0.2,0.5,0.2s0.4-0.1,0.5-0.2c0.3-0.3,0.3-0.8,0-1l-1.6-1.6c-0.3-0.3-0.8-0.3-1,0   c-0.3,0.3-0.3,0.8,0,1L119.4,67.9z"/><path d="M124.6,73.1c0.1,0.1,0.3,0.2,0.5,0.2c0.2,0,0.4-0.1,0.5-0.2c0.3-0.3,0.3-0.8,0-1l-1.6-1.6c-0.3-0.3-0.8-0.3-1,0   c-0.3,0.3-0.3,0.8,0,1L124.6,73.1z"/><path d="M118.3,73.4c0.2,0,0.4-0.1,0.5-0.2l1.6-1.6c0.3-0.3,0.3-0.8,0-1c-0.3-0.3-0.8-0.3-1,0l-1.6,1.6c-0.3,0.3-0.3,0.8,0,1   C118,73.3,118.1,73.4,118.3,73.4z"/><path d="M123.6,68.1c0.2,0,0.4-0.1,0.5-0.2l1.6-1.6c0.3-0.3,0.3-0.8,0-1s-0.8-0.3-1,0l-1.6,1.6c-0.3,0.3-0.3,0.8,0,1   C123.2,68.1,123.4,68.1,123.6,68.1z"/><path d="M4,41.6c0.4,0,0.7-0.3,0.7-0.7V29c0-0.4-0.3-0.7-0.7-0.7c-0.4,0-0.7,0.3-0.7,0.7v11.8C3.3,41.2,3.6,41.6,4,41.6z"/><path d="M4,51.4c0.4,0,0.7-0.3,0.7-0.7v-4.2c0-0.4-0.3-0.7-0.7-0.7c-0.4,0-0.7,0.3-0.7,0.7v4.2C3.3,51,3.6,51.4,4,51.4z"/><path d="M121.3,25.3c0.4,0,0.7-0.3,0.7-0.7V12.7c0-0.4-0.3-0.7-0.7-0.7c-0.4,0-0.7,0.3-0.7,0.7v11.8   C120.6,25,120.9,25.3,121.3,25.3z"/><path d="M121.3,35.1c0.4,0,0.7-0.3,0.7-0.7v-4.2c0-0.4-0.3-0.7-0.7-0.7c-0.4,0-0.7,0.3-0.7,0.7v4.2   C120.6,34.8,120.9,35.1,121.3,35.1z"/><path d="M61.5,19c1.9,0,3.5-1.6,3.5-3.5c0-1.9-1.6-3.5-3.5-3.5c-1.9,0-3.5,1.6-3.5,3.5C58,17.4,59.5,19,61.5,19z M61.5,13.5   c1.1,0,2,0.9,2,2s-0.9,2-2,2c-1.1,0-2-0.9-2-2S60.3,13.5,61.5,13.5z"/><path d="M79.6,111.8c-1.9,0-3.5,1.6-3.5,3.5s1.6,3.5,3.5,3.5c1.9,0,3.5-1.6,3.5-3.5S81.6,111.8,79.6,111.8z M79.6,117.3   c-1.1,0-2-0.9-2-2s0.9-2,2-2s2,0.9,2,2S80.7,117.3,79.6,117.3z"/><path d="M7.5,82.3c0-1.9-1.6-3.5-3.5-3.5c-1.9,0-3.5,1.6-3.5,3.5c0,1.9,1.6,3.5,3.5,3.5C5.9,85.8,7.5,84.2,7.5,82.3z M2,82.3   c0-1.1,0.9-2,2-2c1.1,0,2,0.9,2,2c0,1.1-0.9,2-2,2C2.9,84.3,2,83.4,2,82.3z"/><path d="M17.5,13.7c0,0.4,0.3,0.7,0.7,0.7h15.5c0.4,0,0.7-0.3,0.7-0.7c0-0.4-0.3-0.7-0.7-0.7H18.3C17.9,13,17.5,13.3,17.5,13.7z"/><path d="M8.2,14.4h5c0.4,0,0.7-0.3,0.7-0.7c0-0.4-0.3-0.7-0.7-0.7h-5c-0.4,0-0.7,0.3-0.7,0.7C7.4,14.1,7.8,14.4,8.2,14.4z"/><path d="M8.2,9.1H19c0.4,0,0.7-0.3,0.7-0.7c0-0.4-0.3-0.7-0.7-0.7H8.2C7.8,7.6,7.4,8,7.4,8.4C7.4,8.8,7.8,9.1,8.2,9.1z"/><path d="M23.6,9.1h3.5c0.4,0,0.7-0.3,0.7-0.7c0-0.4-0.3-0.7-0.7-0.7h-3.5c-0.4,0-0.7,0.3-0.7,0.7C22.9,8.8,23.2,9.1,23.6,9.1z"/><path d="M117.4,114.3c0-0.4-0.3-0.7-0.7-0.7h-15.5c-0.4,0-0.7,0.3-0.7,0.7c0,0.4,0.3,0.7,0.7,0.7h15.5   C117.1,115,117.4,114.7,117.4,114.3z"/><path d="M121,114.3c0,0.4,0.3,0.7,0.7,0.7h5c0.4,0,0.7-0.3,0.7-0.7c0-0.4-0.3-0.7-0.7-0.7h-5C121.3,113.6,121,113.9,121,114.3z"/><path d="M126.8,118.9H116c-0.4,0-0.7,0.3-0.7,0.7c0,0.4,0.3,0.7,0.7,0.7h10.8c0.4,0,0.7-0.3,0.7-0.7   C127.5,119.2,127.2,118.9,126.8,118.9z"/><path d="M111.3,118.9h-3.5c-0.4,0-0.7,0.3-0.7,0.7c0,0.4,0.3,0.7,0.7,0.7h3.5c0.4,0,0.7-0.3,0.7-0.7   C112,119.2,111.7,118.9,111.3,118.9z"/><path d="M121.8,103.6l1.1-1.9c0.2-0.4,0.2-0.9,0-1.3c-0.2-0.4-0.7-0.7-1.1-0.7H6.7c-0.5,0-0.9,0.3-1.1,0.7c-0.2,0.4-0.2,0.9,0,1.3   l1.1,1.9c1.9,3.2,5.5,5.2,9.3,5.2h96.5C116.2,108.8,119.8,106.8,121.8,103.6z M8,102.8l-1-1.6h114.4l-1,1.6c-1.7,2.8-4.8,4.5-8,4.5   H16C12.8,107.4,9.7,105.6,8,102.8z"/><path d="M75.6,71.8c-0.3-0.2-0.8-0.1-1,0.2c-0.2,0.3-0.1,0.8,0.2,1l9.6,6l-9.6,6c-0.3,0.2-0.5,0.7-0.2,1c0.1,0.2,0.4,0.3,0.6,0.3   c0.1,0,0.3,0,0.4-0.1l10.6-6.6c0.2-0.1,0.3-0.4,0.3-0.6s-0.1-0.5-0.3-0.6L75.6,71.8z"/><path d="M53.9,72c-0.2-0.3-0.7-0.5-1-0.2l-10.6,6.6c-0.2,0.1-0.3,0.4-0.3,0.6s0.1,0.5,0.3,0.6l10.6,6.6c0.1,0.1,0.3,0.1,0.4,0.1   c0.2,0,0.5-0.1,0.6-0.3c0.2-0.3,0.1-0.8-0.2-1L44,79l9.6-6C54,72.8,54.1,72.4,53.9,72z"/><path d="M68.3,68.2c-0.4-0.1-0.8,0-0.9,0.4l-7.6,19.9c-0.1,0.4,0,0.8,0.4,0.9c0.1,0,0.2,0,0.3,0c0.3,0,0.6-0.2,0.7-0.5l7.6-19.9   C68.9,68.7,68.7,68.3,68.3,68.2z"/><path d="M27,26.3v12.7h-6.1c-2.9,0-5.3,2.4-5.3,5.3v51.5c0,0.4,0.3,0.7,0.7,0.7h95.8c0.4,0,0.7-0.3,0.7-0.7V44.4   c0-2.9-2.4-5.3-5.3-5.3h-6.1V26.3c0-0.4-0.3-0.7-0.7-0.7h-73C27.3,25.6,27,25.9,27,26.3z M107.6,40.5c2.1,0,3.9,1.7,3.9,3.9v50.8   H17.1V44.4c0-2.1,1.7-3.9,3.9-3.9H27v21c0,0.4,0.3,0.7,0.7,0.7h73c0.4,0,0.7-0.3,0.7-0.7v-21H107.6z M28.5,27.1H100v33.8H28.5V27.1   z"/><path d="M32,35.5h5.6c0.4,0,0.7-0.3,0.7-0.7v-4.1c0-0.4-0.3-0.7-0.7-0.7H32c-0.4,0-0.7,0.3-0.7,0.7v4.1   C31.3,35.1,31.6,35.5,32,35.5z M32.7,31.3h4.1V34h-4.1V31.3z"/><path d="M41.8,35.5h5.6c0.4,0,0.7-0.3,0.7-0.7v-4.1c0-0.4-0.3-0.7-0.7-0.7h-5.6c-0.4,0-0.7,0.3-0.7,0.7v4.1   C41.1,35.1,41.4,35.5,41.8,35.5z M42.5,31.3h4.1V34h-4.1V31.3z"/><path d="M51.6,35.5h5.6c0.4,0,0.7-0.3,0.7-0.7v-4.1c0-0.4-0.3-0.7-0.7-0.7h-5.6c-0.4,0-0.7,0.3-0.7,0.7v4.1   C50.9,35.1,51.2,35.5,51.6,35.5z M52.4,31.3h4.1V34h-4.1V31.3z"/><path d="M61.5,35.5H67c0.4,0,0.7-0.3,0.7-0.7v-4.1c0-0.4-0.3-0.7-0.7-0.7h-5.6c-0.4,0-0.7,0.3-0.7,0.7v4.1   C60.7,35.1,61,35.5,61.5,35.5z M62.2,31.3h4.1V34h-4.1V31.3z"/><path d="M71.3,35.5h5.6c0.4,0,0.7-0.3,0.7-0.7v-4.1c0-0.4-0.3-0.7-0.7-0.7h-5.6c-0.4,0-0.7,0.3-0.7,0.7v4.1   C70.5,35.1,70.9,35.5,71.3,35.5z M72,31.3h4.1V34H72V31.3z"/><path d="M81.1,35.5h5.6c0.4,0,0.7-0.3,0.7-0.7v-4.1c0-0.4-0.3-0.7-0.7-0.7h-5.6c-0.4,0-0.7,0.3-0.7,0.7v4.1   C80.4,35.1,80.7,35.5,81.1,35.5z M81.8,31.3h4.1V34h-4.1V31.3z"/><path d="M90.9,35.5h5.6c0.4,0,0.7-0.3,0.7-0.7v-4.1c0-0.4-0.3-0.7-0.7-0.7h-5.6c-0.4,0-0.7,0.3-0.7,0.7v4.1   C90.2,35.1,90.5,35.5,90.9,35.5z M91.7,31.3h4.1V34h-4.1V31.3z"/><path d="M32,43h5.6c0.4,0,0.7-0.3,0.7-0.7v-4.1c0-0.4-0.3-0.7-0.7-0.7H32c-0.4,0-0.7,0.3-0.7,0.7v4.1C31.3,42.7,31.6,43,32,43z    M32.7,38.9h4.1v2.7h-4.1V38.9z"/><path d="M41.8,43h5.6c0.4,0,0.7-0.3,0.7-0.7v-4.1c0-0.4-0.3-0.7-0.7-0.7h-5.6c-0.4,0-0.7,0.3-0.7,0.7v4.1   C41.1,42.7,41.4,43,41.8,43z M42.5,38.9h4.1v2.7h-4.1V38.9z"/><path d="M51.6,43h5.6c0.4,0,0.7-0.3,0.7-0.7v-4.1c0-0.4-0.3-0.7-0.7-0.7h-5.6c-0.4,0-0.7,0.3-0.7,0.7v4.1   C50.9,42.7,51.2,43,51.6,43z M52.4,38.9h4.1v2.7h-4.1V38.9z"/><path d="M61.5,43H67c0.4,0,0.7-0.3,0.7-0.7v-4.1c0-0.4-0.3-0.7-0.7-0.7h-5.6c-0.4,0-0.7,0.3-0.7,0.7v4.1C60.7,42.7,61,43,61.5,43z    M62.2,38.9h4.1v2.7h-4.1V38.9z"/><path d="M71.3,43h5.6c0.4,0,0.7-0.3,0.7-0.7v-4.1c0-0.4-0.3-0.7-0.7-0.7h-5.6c-0.4,0-0.7,0.3-0.7,0.7v4.1   C70.5,42.7,70.9,43,71.3,43z M72,38.9h4.1v2.7H72V38.9z"/><path d="M81.1,43h5.6c0.4,0,0.7-0.3,0.7-0.7v-4.1c0-0.4-0.3-0.7-0.7-0.7h-5.6c-0.4,0-0.7,0.3-0.7,0.7v4.1   C80.4,42.7,80.7,43,81.1,43z M81.8,38.9h4.1v2.7h-4.1V38.9z"/><path d="M90.9,43h5.6c0.4,0,0.7-0.3,0.7-0.7v-4.1c0-0.4-0.3-0.7-0.7-0.7h-5.6c-0.4,0-0.7,0.3-0.7,0.7v4.1   C90.2,42.7,90.5,43,90.9,43z M91.7,38.9h4.1v2.7h-4.1V38.9z"/><path d="M32,50.5h5.6c0.4,0,0.7-0.3,0.7-0.7v-4.1c0-0.4-0.3-0.7-0.7-0.7H32c-0.4,0-0.7,0.3-0.7,0.7v4.1   C31.3,50.2,31.6,50.5,32,50.5z M32.7,46.4h4.1v2.7h-4.1V46.4z"/><path d="M41.8,50.5h5.6c0.4,0,0.7-0.3,0.7-0.7v-4.1c0-0.4-0.3-0.7-0.7-0.7h-5.6c-0.4,0-0.7,0.3-0.7,0.7v4.1   C41.1,50.2,41.4,50.5,41.8,50.5z M42.5,46.4h4.1v2.7h-4.1V46.4z"/><path d="M51.6,50.5h5.6c0.4,0,0.7-0.3,0.7-0.7v-4.1c0-0.4-0.3-0.7-0.7-0.7h-5.6c-0.4,0-0.7,0.3-0.7,0.7v4.1   C50.9,50.2,51.2,50.5,51.6,50.5z M52.4,46.4h4.1v2.7h-4.1V46.4z"/><path d="M61.5,50.5H67c0.4,0,0.7-0.3,0.7-0.7v-4.1c0-0.4-0.3-0.7-0.7-0.7h-5.6c-0.4,0-0.7,0.3-0.7,0.7v4.1   C60.7,50.2,61,50.5,61.5,50.5z M62.2,46.4h4.1v2.7h-4.1V46.4z"/><path d="M71.3,50.5h5.6c0.4,0,0.7-0.3,0.7-0.7v-4.1c0-0.4-0.3-0.7-0.7-0.7h-5.6c-0.4,0-0.7,0.3-0.7,0.7v4.1   C70.5,50.2,70.9,50.5,71.3,50.5z M72,46.4h4.1v2.7H72V46.4z"/><path d="M81.1,50.5h5.6c0.4,0,0.7-0.3,0.7-0.7v-4.1c0-0.4-0.3-0.7-0.7-0.7h-5.6c-0.4,0-0.7,0.3-0.7,0.7v4.1   C80.4,50.2,80.7,50.5,81.1,50.5z M81.8,46.4h4.1v2.7h-4.1V46.4z"/><path d="M90.9,50.5h5.6c0.4,0,0.7-0.3,0.7-0.7v-4.1c0-0.4-0.3-0.7-0.7-0.7h-5.6c-0.4,0-0.7,0.3-0.7,0.7v4.1   C90.2,50.2,90.5,50.5,90.9,50.5z M91.7,46.4h4.1v2.7h-4.1V46.4z"/><path d="M32,58.1h5.6c0.4,0,0.7-0.3,0.7-0.7v-4.1c0-0.4-0.3-0.7-0.7-0.7H32c-0.4,0-0.7,0.3-0.7,0.7v4.1   C31.3,57.7,31.6,58.1,32,58.1z M32.7,53.9h4.1v2.7h-4.1V53.9z"/><path d="M41.8,58.1H67c0.4,0,0.7-0.3,0.7-0.7v-4.1c0-0.4-0.3-0.7-0.7-0.7H41.8c-0.4,0-0.7,0.3-0.7,0.7v4.1   C41.1,57.7,41.4,58.1,41.8,58.1z M42.5,53.9h23.8v2.7H42.5V53.9z"/><path d="M71.3,58.1h5.6c0.4,0,0.7-0.3,0.7-0.7v-4.1c0-0.4-0.3-0.7-0.7-0.7h-5.6c-0.4,0-0.7,0.3-0.7,0.7v4.1   C70.5,57.7,70.9,58.1,71.3,58.1z M72,53.9h4.1v2.7H72V53.9z"/><path d="M81.1,58.1h5.6c0.4,0,0.7-0.3,0.7-0.7v-4.1c0-0.4-0.3-0.7-0.7-0.7h-5.6c-0.4,0-0.7,0.3-0.7,0.7v4.1   C80.4,57.7,80.7,58.1,81.1,58.1z M81.8,53.9h4.1v2.7h-4.1V53.9z"/><path d="M90.9,58.1h5.6c0.4,0,0.7-0.3,0.7-0.7v-4.1c0-0.4-0.3-0.7-0.7-0.7h-5.6c-0.4,0-0.7,0.3-0.7,0.7v4.1   C90.2,57.7,90.5,58.1,90.9,58.1z M91.7,53.9h4.1v2.7h-4.1V53.9z"/></g><text x="0" y="143" fill="#000000" font-size="5px" font-weight="bold" font-family="'Helvetica Neue', Helvetica, Arial-Unicode, Arial, Sans-serif">Created by Creative Stall</text><text x="0" y="148" fill="#000000" font-size="5px" font-weight="bold" font-family="'Helvetica Neue', Helvetica, Arial-Unicode, Arial, Sans-serif">from the Noun Project</text></svg>